<?xml version="1.0" encoding="UTF-8"?>
<svg id="Layer_2" data-name="Layer 2" xmlns="http://www.w3.org/2000/svg" viewBox="0 0 241.0207 241.0207">
  <defs>
    <style>
      .cls-1 {
        stroke-width: 5.8px;
      }

      .cls-1, .cls-2 {
        fill: none;
        stroke: #435eab;
        stroke-miterlimit: 10;
      }

      .cls-2 {
        stroke-width: 1.9px;
      }
    </style>
  </defs>
  <g id="Layer_2-2" data-name="Layer 2">
    <rect class="cls-2" x="132.5308" y="68.8521" width="3.9884" height="8.3192"/>
    <rect class="cls-2" x="84.4936" y="93.6504" width="14.2688" height="77.052" rx="7.1344" ry="7.1344" transform="translate(-40.5484 223.8044) rotate(-90)"/>
    <path class="cls-2" d="m113.7355,142.4811h0c3.1926,0,5.7847,2.592,5.7847,5.7847v62.0032c0,2.5467-2.0676,4.6143-4.6143,4.6143h-1.1704c-2.5467,0-4.6143-2.0676-4.6143-4.6143v-63.1736c0-2.5467,2.0676-4.6143,4.6143-4.6143Z" transform="translate(293.0029 64.3616) rotate(90)"/>
    <circle class="cls-2" cx="87.401" cy="187.1882" r="6.1438"/>
    <circle class="cls-2" cx="142.663" cy="188.9356" r="6.1438"/>
    <circle class="cls-2" cx="120.4644" cy="190.0255" r="6.1438"/>
    <circle class="cls-2" cx="103.9327" cy="190.0255" r="6.1438"/>
    <path class="cls-2" d="m126.6928,154.677c-10.3247-3.0992-16.1821-13.9815-13.0828-24.3062l14.2113-47.3431c3.0992-10.3247,2.5916-10.0514,12.9163-6.9522"/>
    <path class="cls-2" d="m101.5801,113.5317l-33.687-10.8164c-.3832-.1115-.6912-.5461-.6846-.9658h0c.0842-5.3086,4.119-8.4976,8.9663-7.0866l28.0345,8.1605c.3832.1115.6912.5461.6846.9658l-2.605,9.1823c-.0067.4196-.3256.6717-.7088.5602Z"/>
    <circle class="cls-1" cx="120.5104" cy="120.5104" r="117.6104"/>
  </g>
  <g id="Layer_7" data-name="Layer 7">
    <path class="cls-2" d="m117.9647,154.5334h0c3.1926,0,5.7847,2.592,5.7847,5.7847v18.9493c0,2.5467-2.0676,4.6143-4.6143,4.6143h-1.1704c-2.5467,0-4.6143-2.0676-4.6143-4.6143v-20.1197c0-2.5467,2.0676-4.6143,4.6143-4.6143Z"/>
  </g>
  <g id="Layer_6" data-name="Layer 6">
    <rect class="cls-2" x="92.2229" y="101.7242" width="33.0601" height="77.052" rx="12.0759" ry="12.0759" transform="translate(249.0032 31.4972) rotate(90)"/>
  </g>
  <g id="Layer_5" data-name="Layer 5">
    <path class="cls-2" d="m151.8785,122.6586l-42.2577-10.8164c-.4807-.1115-.8671-.5461-.8587-.9658h0c.1056-5.3086,5.167-8.4976,11.2475-7.0866l35.1671,8.1605c.4807.1115.8671.5461.8587.9658l-3.2678,9.1823c-.0083.4196-.4084.6717-.8891.5602Z"/>
  </g>
  <g id="Layer_3" data-name="Layer 3">
    <rect class="cls-2" x="126.7401" y="37.816" width="19.5582" height="48.3969" rx="9.7791" ry="9.7791" transform="translate(198.5336 -74.5047) rotate(90)"/>
  </g>
  <g id="Layer_4" data-name="Layer 4">
    <path class="cls-2" d="m129.4021,156.7802h-19.8971c-9.8323,0-17.8769-8.0446-17.8769-17.8769l15.3765-46.5139c0-9.8323,8.0446-17.8769,17.8769-17.8769h19.8971c9.8323,0,17.8769,8.0446,17.8769,17.8769l-15.3765,46.5139c0,9.8323-8.0446,17.8769-17.8769,17.8769Z"/>
  </g>
</svg>