<?xml version="1.0" encoding="UTF-8"?>
<svg id="Layer_2" data-name="Layer 2" xmlns="http://www.w3.org/2000/svg" viewBox="0 0 11.7374 12.4795">
  <defs>
    <style>
      .cls-1 {
        fill: #231f20;
        stroke-width: 0px;
      }
    </style>
  </defs>
  <g id="Layer_1-2" data-name="Layer 1">
    <path class="cls-1" d="m.1335,4.6096c-.3842-1.2218.0922-2.6186,1.0227-3.4988C2.1512.1697,3.6396-.2173,4.967.1201c.4153.1055.8109.2756,1.2045.4449,1.1231.4832,2.2462.9664,3.3693,1.4496.911.392,1.9345.9129,2.156,1.8796.1681.734-.2071,1.4939-.7147,2.05s-1.1471.976-1.6779,1.51c-.8344.8394-1.3804,1.9604-1.5269,3.1348-.0822.6589-.1176,1.4601-.7027,1.774-.4006.2149-.8909.0905-1.3268-.0385-1.4894-.4406-3.5917-.5218-3.8033-2.3636-.0958-.8333-.0851-1.6257-.3489-2.4379-.3408-1.049-1.1333-1.8687-1.4618-2.9135Z"/>
  </g>
</svg>