<?xml version="1.0" encoding="UTF-8"?>
<svg id="Layer_2" data-name="Layer 2" xmlns="http://www.w3.org/2000/svg" viewBox="0 0 64.1836 70.5298">
  <defs>
    <style>
      .cls-1 {
        fill: #0c6fb5;
        stroke-width: 0px;
      }
    </style>
  </defs>
  <g id="Layer_1-2" data-name="Layer 1">
    <g>
      <path class="cls-1" d="m18.2217,62.6874c13.7886,1.0311,34.8915-15.5452,34.8915-15.5452,0,0-18.111,11.6386-29.7804,1.6893-11.0292-9.4035,10.1647-30.214,5.2187-23.6917-.0495.0652-.0985.1306-.147.196-3.365,4.5397-3.5256,15.1383.4394,17.6664,2.3789,1.5168,5.2916,1.2861,7.4463,1.1389,9.229-.6306,27.8933-8.3626,27.8933-8.3626-9.3599,15.6945-34.9386,39.6551-53.8393,33.8683C.1916,66.5383-1.0178,56.4649.5851,48.9283,6.927,19.1093,41.8243,0,41.8243,0c0,0-12.4171,10.1336-21.0777,21.7318C7.5853,39.3572-1.5356,61.2099,18.2217,62.6874Z"/>
      <polygon class="cls-1" points="43.6028 25.9125 49.3451 29.0257 43.7079 32.1354 40.6921 37.8234 37.4842 32.1334 31.7418 29.0203 37.3791 25.9106 40.3948 20.2226 43.6028 25.9125"/>
    </g>
  </g>
</svg>