<?xml version="1.0" encoding="UTF-8"?>
<svg id="Layer_2" data-name="Layer 2" xmlns="http://www.w3.org/2000/svg" xmlns:xlink="http://www.w3.org/1999/xlink" viewBox="0 0 305.02 350.49">
  <defs>
    <style>
      .cls-1 {
        fill:  blue
      }

      .cls-2 {
          fill: blue
      }

      .cls-3 {
        clip-path: url(#clippath-1);
      }
    </style>
    <clipPath id="clippath-1">
      <path class="cls-1" d="m245.36,181.37c-42.01,78.96-119.59,141.14-173.17,138.92s-63.12-68.06-21.11-146.99C93.1,94.37,170.56,32.13,224.23,34.37"/>
    </clipPath>
  </defs>
  <g id="Layer_1-2" data-name="Layer 1">
    <g id="Layer_2-2" data-name="Layer 2">
      <g id="Layer_1-4" data-name="Layer 1">
        <g class="cls-3">
          <g id="Group_1" data-name="Group 1">
            <path id="Path_1" data-name="Path 1" class="cls-2" d="m250.36,171.82c-5.81,12.8-12.39,25.19-19.71,37.07-7.47,11.94-15.59,23.39-24.32,34.27-17.74,22.23-38.28,41.56-60.91,57.35-11.82,8.19-24.41,14.83-37.51,19.79-14.19,5.56-29.14,7.69-43.82,6.25-8.24-1-16.17-3.65-23.4-7.82-7.6-4.47-14.14-10.75-19.18-18.42-4.86-7.38-8.46-15.71-10.64-24.62-2.01-8.29-3.06-16.87-3.14-25.56-.08-8.21.43-16.44,1.52-24.62,1.01-7.91,2.49-15.77,4.44-23.52,3.71-15.14,8.71-29.93,14.94-44.16,6.11-13.98,13.39-27.36,21.75-39.93,8.33-12.36,17.63-23.92,27.78-34.53,20.23-21.3,43.55-38.65,68.86-51.25,12.78-6.35,26.16-10.89,39.82-13.48,6.86-1.22,13.78-1.71,20.65-1.48,6.8.17,13.5,1.39,19.9,3.63l-.47,5.55c-11.8,3.58-23.17,8.94-33.79,15.92-10.28,6.75-20.1,14.34-29.39,22.71-18.39,16.57-35.34,35.03-50.62,55.09-15.12,19.63-29.07,40.29-41.76,61.84-3.04,5.36-6.06,10.79-8.68,16.32-2.73,5.43-5.18,11.02-7.32,16.74-4.27,10.78-6.94,22.17-7.9,33.72-1.06,9.7.47,19.39,4.4,27.86,1.81,3.57,4.35,6.6,7.42,8.88,3.44,2.49,7.3,4.24,11.39,5.17,10.03,2.17,20.49,1.87,30.64-.86,11.33-2.85,22.37-7.18,32.9-12.89,11-5.76,21.61-12.48,31.72-20.09,10.39-7.79,20.37-16.26,29.86-25.38,18.99-18.41,35.9-39.3,50.33-62.14l4.24,2.6Z"/>
          </g>
        </g>
        <path id="Path_3" data-name="Path 3" class="cls-2" d="m242.88,172.72c4.29-2.51,8.55,2.86,5.67,7.19-3.47,5.23-7.23,10.23-11.26,14.98-8.03,9.32-16.78,17.86-26.14,25.51-4.77,3.83-9.7,7.4-14.77,10.7-2.53,1.69-5.05,3.39-7.72,4.84-2.67,1.45-5.18,3.07-7.97,4.39-11.15,5.88-22.94,9.97-35,12.13-3.15.41-6.32.78-9.53,1.02-.14.01-.28.01-.42.01l-5.42-.05c-1.66-.01-3.31-.16-4.93-.44l-4.98-.84c-1.85-.36-3.66-.87-5.43-1.52-3.94-1.38-7.66-3.39-11.04-5.95-7.39-5.72-12.27-14.56-13.57-24.59-.5-4.32-.47-8.72.09-13.09.58-3.88,1.49-7.7,2.72-11.42,4.62-12.84,11.75-24.52,20.84-34.18,4.2-4.65,8.71-8.93,13.48-12.81,3.99-3.24,8.93,1.44,6.61,6.24-.03.05-.05.11-.08.16-2.61,5.39-5.2,10.7-7.29,16.04-4.4,9.67-7.49,19.93-9.16,30.46-.56,3.7-.34,7.45.64,10.96.68,1.71,1.93,3.03,3.51,3.71,1.11.52,2.26.94,3.45,1.23.8.2,1.61.34,2.43.44l2.66.21c.95.13,1.91.15,2.87.07l2.98-.05,6.19-.56c.16-.01.32-.04.47-.07,9.38-1.75,18.63-4.45,27.65-8.07,2.4-.79,4.75-1.96,7.15-2.87l3.61-1.45,3.57-1.61c4.81-2.09,9.58-4.44,14.35-6.71,9.61-4.79,19.19-9.96,28.95-15.46,4.93-2.78,9.83-5.64,14.81-8.56Z"/>
        <path id="Path_4" data-name="Path 4" class="cls-2" d="m213.58,93.38l8.94,11.34c2.31,2.93.63,7.69-2.95,8.39l-15.16,2.95c-.82.16-1.6.56-2.26,1.16l-12.02,11.06c-2.85,2.62-7.04.88-7.37-3.07l-1.3-15.24c-.09-1.01-.45-1.95-1.04-2.69l-8.94-11.33c-2.31-2.93-.64-7.7,2.95-8.39l15.16-2.95c.82-.16,1.6-.56,2.26-1.16l12.02-11.06c2.85-2.62,7.03-.88,7.37,3.07l1.3,15.24c.09,1.01.45,1.94,1.04,2.69Z"/>
      </g>
    </g>
  </g>
</svg>